<svg width="24" height="24" viewBox="0 0 24 24" fill="none" xmlns="http://www.w3.org/2000/svg">
<path d="M20.25 9.60058C20.25 9.30859 20.2489 9.13388 20.2383 9.00488C20.2284 8.88454 20.2144 8.87058 20.2227 8.88672C20.1978 8.83801 20.1596 8.80046 20.1143 8.77734C20.1308 8.78576 20.1168 8.77059 19.9961 8.76074C19.8668 8.7502 19.6924 8.75 19.4004 8.75H15.75V19.25H20.25V9.60058ZM3.75 19.25H8.25V11.75H4.59961C4.3072 11.75 4.13295 11.7502 4.00391 11.7607C3.88379 11.7706 3.87039 11.7857 3.88672 11.7773C3.83968 11.8013 3.80131 11.8397 3.77734 11.8867C3.78571 11.8703 3.77058 11.8837 3.76074 12.0039C3.75019 12.1331 3.75 12.3082 3.75 12.6006V19.25ZM14.25 5.60058C14.25 5.30859 14.2489 5.13388 14.2383 5.00488C14.2284 4.88454 14.2144 4.87058 14.2227 4.88672C14.1983 4.83894 14.1596 4.80093 14.1133 4.77734C14.1298 4.78575 14.1164 4.77059 13.9961 4.76074C13.8668 4.75019 13.6918 4.75 13.3994 4.75H10.5996C10.3072 4.75 10.1329 4.75019 10.0039 4.76074C9.88379 4.77057 9.87039 4.78566 9.88672 4.77734C9.83968 4.80131 9.80131 4.83968 9.77734 4.88672C9.78571 4.87029 9.77058 4.88371 9.76074 5.0039C9.75019 5.1331 9.75 5.30819 9.75 5.60058V19.25H14.25V5.60058ZM15.75 7.25H19.4004C19.6679 7.25 19.9137 7.24895 20.1182 7.26562C20.3311 7.283 20.5646 7.32315 20.7949 7.44043C21.1257 7.60899 21.3917 7.87764 21.5586 8.20508C21.6758 8.43513 21.7159 8.66857 21.7334 8.88183C21.7502 9.08641 21.75 9.3327 21.75 9.60058V20C21.75 20.1989 21.6709 20.3896 21.5303 20.5303C21.3896 20.6709 21.1989 20.75 21 20.75H3C2.58579 20.75 2.25 20.4142 2.25 20V12.6006C2.25 12.3329 2.24991 12.0863 2.2666 11.8818C2.28402 11.6688 2.32312 11.4353 2.44043 11.2051C2.60819 10.8759 2.8759 10.6082 3.20508 10.4404C3.43531 10.3231 3.66871 10.284 3.88184 10.2666C4.08616 10.2499 4.33197 10.25 4.59961 10.25H8.25V5.60058C8.25 5.33293 8.24991 5.08625 8.2666 4.88183C8.28402 4.6688 8.32312 4.4353 8.44043 4.20508C8.60819 3.8759 8.8759 3.60819 9.20508 3.44043C9.43531 3.32312 9.66871 3.28402 9.88184 3.2666C10.0862 3.2499 10.332 3.25 10.5996 3.25H13.3994C13.6671 3.25 13.9137 3.24893 14.1182 3.26562C14.3312 3.28304 14.5646 3.32309 14.7949 3.44043C15.1248 3.60852 15.3912 3.87673 15.5586 4.20508C15.6758 4.43513 15.7159 4.66857 15.7334 4.88183C15.7502 5.08641 15.75 5.3327 15.75 5.60058V7.25Z" fill="black"/>
</svg>
