<svg width="24" height="24" viewBox="0 0 24 24" fill="none" xmlns="http://www.w3.org/2000/svg">
<path d="M0.25 14C0.25 11.1012 2.39516 8.70511 5.18457 8.30859C6.49566 5.89258 9.05508 4.25 12 4.25C15.6903 4.25 18.7759 6.82912 19.5576 10.2832C21.9182 10.5593 23.75 12.5653 23.75 15C23.75 17.6234 21.6234 19.75 19 19.75H6C2.82437 19.75 0.250079 17.1755 0.25 14ZM1.75 14C1.75008 16.3472 3.65288 18.25 6 18.25H19C20.7949 18.25 22.25 16.7949 22.25 15C22.25 13.2051 20.7949 11.75 19 11.75C18.9809 11.75 18.9618 11.7506 18.9424 11.751C18.5644 11.7574 18.241 11.4807 18.1875 11.1064C17.7545 8.07824 15.1482 5.75 12 5.75C9.50427 5.75 7.34868 7.21263 6.34668 9.33105C6.23023 9.57727 5.98956 9.741 5.71777 9.75879C3.50259 9.90385 1.75 11.7479 1.75 14Z" fill="black"/>
</svg>
