<svg preserveAspectRatio="xMidYMid meet" overflow="visible" style="display: block;" viewBox="0 0 16 8" fill="none" xmlns="http://www.w3.org/2000/svg">
<g id="Vector">
<path d="M1 6C1 6.55228 1.44772 7 2 7C2.55228 7 3 6.55228 3 6C3 5.44772 2.55228 5 2 5C1.44772 5 1 5.44772 1 6Z" stroke="var(--stroke-0, black)" stroke-width="2" stroke-linecap="round" stroke-linejoin="round"/>
<path d="M7 4C7 4.55228 7.44772 5 8 5C8.55228 5 9 4.55228 9 4C9 3.44772 8.55228 3 8 3C7.44772 3 7 3.44772 7 4Z" stroke="var(--stroke-0, black)" stroke-width="2" stroke-linecap="round" stroke-linejoin="round"/>
<path d="M13 2C13 2.55228 13.4477 3 14 3C14.5523 3 15 2.55228 15 2C15 1.44772 14.5523 1 14 1C13.4477 1 13 1.44772 13 2Z" stroke="var(--stroke-0, black)" stroke-width="2" stroke-linecap="round" stroke-linejoin="round"/>
</g>
</svg>
