<svg preserveAspectRatio="xMidYMid meet" overflow="visible" style="display: block;" viewBox="0 0 20 18.0001" fill="none" xmlns="http://www.w3.org/2000/svg">
<path id="Vector" d="M7.00001 8.00001V17M7.00001 8.00001H2.59961C2.03956 8.00001 1.75982 8.00001 1.5459 8.109C1.35774 8.20487 1.20487 8.35774 1.109 8.5459C1.00001 8.75982 1.00001 9.04005 1.00001 9.6001V17H7.00001M7.00001 8.00001V2.6001C7.00001 2.04005 7.00001 1.75982 7.109 1.5459C7.20487 1.35774 7.35774 1.20487 7.5459 1.109C7.75981 1.00001 8.03956 1.00001 8.59961 1.00001H11.3996C11.9597 1.00001 12.2403 1.00001 12.4542 1.109C12.6424 1.20487 12.7948 1.35774 12.8906 1.5459C12.9996 1.75982 13 2.04005 13 2.6001V5.00001M7.00001 17H13M13 17L19 17.0001V6.6001C19 6.04005 18.9996 5.75982 18.8906 5.5459C18.7948 5.35774 18.6429 5.20487 18.4548 5.109C18.2409 5.00001 17.9601 5.00001 17.4 5.00001H13M13 17V5.00001" stroke="var(--stroke-0, black)" stroke-opacity="0.08" stroke-width="2" stroke-linecap="round" stroke-linejoin="round"/>
</svg>
