<svg width="24" height="24" viewBox="0 0 24 24" fill="none" xmlns="http://www.w3.org/2000/svg">
<path d="M3 6.73043C3 5.5058 4.00736 4.51304 5.25 4.51304H5.57143V3.25652C5.57143 2.92327 5.70689 2.60367 5.94801 2.36803C6.18912 2.13238 6.51615 2 6.85714 2C7.19814 2 7.52516 2.13238 7.76628 2.36803C8.0074 2.60367 8.14286 2.92327 8.14286 3.25652V4.51304H15.8571V3.25652C15.8571 2.92327 15.9926 2.60367 16.2337 2.36803C16.4748 2.13238 16.8019 2 17.1429 2C17.4839 2 17.8109 2.13238 18.052 2.36803C18.2931 2.60367 18.4286 2.92327 18.4286 3.25652V4.51304H18.75C19.9926 4.51304 21 5.5058 21 6.73043V8.28261H3" fill="black"/>
<path d="M3 10.038H21V17.7826C21 19.0072 19.9926 20 18.75 20H5.25C4.00736 20 3 19.0072 3 17.7826V10.038Z" fill="black"/>
</svg>
