<svg width="24" height="24" viewBox="0 0 24 24" fill="none" xmlns="http://www.w3.org/2000/svg">
<path d="M9 5C9 3.89543 9.89543 3 11 3H13C14.1046 3 15 3.89543 15 5V19C15 20.1046 14.1046 21 13 21H11C9.89543 21 9 20.1046 9 19V5Z" fill="black"/>
<path d="M16 9C16 7.89543 16.8954 7 18 7H20C21.1046 7 22 7.89543 22 9V19C22 20.1046 21.1046 21 20 21H18C16.8954 21 16 20.1046 16 19V9Z" fill="black"/>
<path d="M2 12C2 10.8954 2.89543 10 4 10H6C7.10457 10 8 10.8954 8 12V19C8 20.1046 7.10457 21 6 21H4C2.89543 21 2 20.1046 2 19V12Z" fill="black"/>
</svg>
