<svg width="24" height="24" viewBox="0 0 24 24" fill="none" xmlns="http://www.w3.org/2000/svg">
<path d="M14.4825 9.51765C16.583 11.6203 16.5541 14.9914 14.4952 17.0618C14.491 17.0663 14.4868 17.0706 14.4825 17.0748L12.12 19.4373C10.0363 21.521 6.64618 21.5207 4.56279 19.4373C2.47907 17.354 2.47907 13.9635 4.56279 11.8802L5.86728 10.5757C6.21321 10.2297 6.80897 10.4596 6.82683 10.9485C6.84962 11.5716 6.96132 12.1975 7.1675 12.802C7.2373 13.0067 7.18744 13.2331 7.03451 13.386L6.57443 13.8461C5.58915 14.8314 5.55822 16.4357 6.53382 17.4306C7.51904 18.4353 9.13843 18.4413 10.1312 17.4485L12.4937 15.0864C13.4848 14.0953 13.4806 12.4934 12.4937 11.5064C12.3636 11.3766 12.2325 11.2757 12.1301 11.2052C12.0577 11.1555 11.9979 11.0895 11.9555 11.0125C11.9131 10.9356 11.8893 10.8498 11.8859 10.762C11.872 10.3905 12.0036 10.0077 12.2972 9.71414L13.0374 8.97394C13.2315 8.77983 13.536 8.756 13.761 8.91311C14.0188 9.09309 14.2602 9.29538 14.4825 9.51765Z" fill="black"/>
<path d="M19.4372 4.56268C17.3538 2.47925 13.9638 2.47896 11.88 4.56268L9.51754 6.92518C9.51333 6.92939 9.50876 6.93397 9.50487 6.93818C7.44592 9.00861 7.41705 12.3797 9.51754 14.4823C9.73983 14.7046 9.98124 14.9069 10.239 15.0869C10.4641 15.244 10.7686 15.2201 10.9627 15.0261L11.7029 14.2859C11.9964 13.9923 12.128 13.6095 12.1141 13.238C12.1108 13.1502 12.0869 13.0644 12.0445 12.9875C12.0021 12.9105 11.9423 12.8446 11.8699 12.7948C11.7675 12.7244 11.6365 12.6234 11.5063 12.4936C10.5194 11.5067 10.5152 9.90473 11.5063 8.91365L13.8688 6.5515C14.8616 5.55873 16.481 5.56471 17.4662 6.56943C18.4418 7.56436 18.4109 9.16867 17.4256 10.154L16.9655 10.614C16.8126 10.767 16.7627 10.9934 16.8325 11.1981C17.0387 11.8025 17.1504 12.4285 17.1732 13.0515C17.1911 13.5404 17.7868 13.7703 18.1327 13.4244L19.4372 12.1199C21.5209 10.0365 21.5209 6.64604 19.4372 4.56268Z" fill="black"/>
</svg>
