<svg width="24" height="24" viewBox="0 0 24 24" fill="none" xmlns="http://www.w3.org/2000/svg">
<path fill-rule="evenodd" clip-rule="evenodd" d="M12.5525 3.04187C10.5493 2.84459 8.53931 3.34865 6.86599 4.46667C5.19276 5.58473 3.95916 7.24891 3.37478 9.17468C2.79052 11.1007 2.89179 13.1707 3.66189 15.0302C4.43204 16.8893 5.82337 18.425 7.59841 19.3739C9.37338 20.3225 11.4233 20.6258 13.3972 20.2333C15.3711 19.8405 17.1488 18.7754 18.4256 17.2196C19.7022 15.6637 20.3992 13.7125 20.3992 11.7001C20.3992 11.3139 20.0861 11.0009 19.7 11.0009H18.199C17.8128 11.0009 17.4998 11.3139 17.4998 11.7001C17.4998 13.0418 17.0345 14.3435 16.1834 15.3807C15.3323 16.4176 14.1475 17.1267 12.8318 17.3885C11.5158 17.6503 10.1489 17.4477 8.9656 16.8153C7.78256 16.1828 6.85507 15.1595 6.34157 13.9198C5.82824 12.6802 5.76069 11.3004 6.15017 10.0165C6.53981 8.73278 7.36203 7.62308 8.47732 6.87781C9.59277 6.13262 10.9325 5.79732 12.2674 5.92859C13.6029 6.06012 14.8529 6.65002 15.8015 7.59851C16.075 7.87194 16.5183 7.87188 16.7917 7.59839L17.8524 6.5371C18.1253 6.26411 18.1252 5.82163 17.8523 5.54871C16.4291 4.12559 14.5555 3.23915 12.5525 3.04187Z" fill="black"/>
</svg>
