<svg width="24" height="24" viewBox="0 0 24 24" fill="none" xmlns="http://www.w3.org/2000/svg">
<path d="M17.7116 2.14955C18.103 1.703 18.7605 1.78685 18.8923 2.29994L20.6726 9.24232C20.8028 9.75158 20.3176 10.3041 19.7956 10.2413L12.6804 9.38685C12.1545 9.32344 11.9855 8.683 12.3767 8.23646L14.1999 6.15541C13.3795 5.84663 12.4993 5.7123 11.6159 5.76673C10.3479 5.84491 9.13347 6.30779 8.13545 7.09388C7.1375 7.87997 6.40301 8.95179 6.02998 10.1661C5.65694 11.3806 5.66296 12.68 6.04755 13.8908C6.43213 15.1015 7.17699 16.166 8.18232 16.9425C9.18778 17.7191 10.4068 18.1704 11.6755 18.2365C12.944 18.3025 14.2023 17.9804 15.2829 17.3126C16.3635 16.6448 17.215 15.6633 17.7233 14.4992L20.2477 15.6007C19.5152 17.2786 18.2885 18.6939 16.7311 19.6564C15.1739 20.6187 13.3601 21.0826 11.5319 20.9874C9.70367 20.8922 7.94765 20.2422 6.49873 19.1232C5.04983 18.0041 3.97681 16.4695 3.42255 14.7247C2.86834 12.9799 2.85963 11.1076 3.39716 9.35755C3.93476 7.60747 4.99311 6.06264 6.43134 4.92982C7.8695 3.79709 9.61879 3.12942 11.446 3.01673C13.0599 2.91723 14.6667 3.25539 16.0993 3.98841L17.7116 2.14955Z" fill="black"/>
</svg>
